<svg xmlns="http://www.w3.org/2000/svg" xmlns:xlink="http://www.w3.org/1999/xlink" width="1080" zoomAndPan="magnify" viewBox="0 0 810 809.999993" height="1080" preserveAspectRatio="xMidYMid meet" version="1.0"><defs><clipPath id="deb8026763"><path d="M 36.285156 393 L 766 393 L 766 417 L 36.285156 417 Z M 36.285156 393 " clip-rule="nonzero"/></clipPath><clipPath id="cd711dc5b7"><path d="M 653 292 L 773.535156 292 L 773.535156 518 L 653 518 Z M 653 292 " clip-rule="nonzero"/></clipPath></defs><g clip-path="url(#deb8026763)"><path fill="#ffffff" d="M 730.492188 416.371094 L 765.617188 416.371094 L 765.617188 393.628906 L 730.492188 393.628906 Z M 661.25 416.371094 L 707.746094 416.371094 L 707.746094 393.628906 L 661.25 393.628906 Z M 592.148438 416.371094 L 638.648438 416.371094 L 638.648438 393.628906 L 592.148438 393.628906 Z M 522.902344 416.371094 L 569.402344 416.371094 L 569.402344 393.628906 L 522.902344 393.628906 Z M 452.652344 416.371094 L 499.148438 416.371094 L 499.148438 393.628906 L 452.652344 393.628906 Z M 383.40625 416.371094 L 429.90625 416.371094 L 429.90625 393.628906 L 383.40625 393.628906 Z M 314.304688 416.371094 L 360.804688 416.371094 L 360.804688 393.628906 L 314.304688 393.628906 Z M 245.058594 416.371094 L 291.558594 416.371094 L 291.558594 393.628906 L 245.058594 393.628906 Z M 174.808594 416.371094 L 221.308594 416.371094 L 221.308594 393.628906 L 174.808594 393.628906 Z M 105.5625 416.371094 L 152.0625 416.371094 L 152.0625 393.628906 L 105.5625 393.628906 Z M 36.460938 416.371094 L 82.960938 416.371094 L 82.960938 393.628906 L 36.460938 393.628906 Z M 36.460938 416.371094 " fill-opacity="1" fill-rule="nonzero"/></g><g clip-path="url(#cd711dc5b7)"><path fill="#ffffff" d="M 669.167969 517.289062 L 773.535156 412.917969 L 773.535156 397.082031 L 669.167969 292.710938 L 653.332031 308.546875 L 748.632812 405 L 653.332031 501.453125 Z M 669.167969 517.289062 " fill-opacity="1" fill-rule="nonzero"/></g></svg>